<svg width="500" height="500" viewBox="0 0 500 500" fill="none" xmlns="http://www.w3.org/2000/svg">
<rect width="500" height="500" fill="#EFF5FF"/>
<path d="M148.5 287.199C148.5 343.152 194.013 388.664 249.965 388.664C305.918 388.664 351.43 343.152 351.43 287.199C351.43 283.967 348.816 281.353 345.584 281.353C342.352 281.353 339.738 283.967 339.738 287.199C339.738 336.696 299.463 376.971 249.965 376.971C200.468 376.971 160.193 336.696 160.193 287.199C160.193 283.967 157.578 281.353 154.346 281.353C151.114 281.353 148.5 283.967 148.5 287.199Z" fill="black" stroke="black" stroke-width="3"/>
<path d="M339.807 243.736C339.807 246.968 342.422 249.582 345.654 249.582C348.886 249.582 351.5 246.968 351.5 243.736C351.5 168.611 290.389 107.5 215.264 107.5C212.032 107.5 209.418 110.114 209.418 113.346C209.418 116.578 212.032 119.193 215.264 119.193C283.933 119.193 339.807 175.067 339.807 243.736Z" fill="black" stroke="black" stroke-width="3"/>
<path d="M148.57 174.269C148.57 177.501 151.184 180.115 154.416 180.115C191.201 180.115 221.128 150.189 221.128 113.407C221.128 110.175 218.514 107.561 215.282 107.561C212.05 107.561 209.435 110.175 209.435 113.407C209.435 143.742 184.751 168.422 154.416 168.422C151.184 168.422 148.57 171.037 148.57 174.269Z" fill="black" stroke="black" stroke-width="3"/>
<path d="M339.799 287.199C339.799 290.431 342.413 293.045 345.645 293.045C348.877 293.045 351.491 290.431 351.491 287.199V243.736C351.491 240.504 348.877 237.89 345.645 237.89C342.413 237.89 339.799 240.504 339.799 243.736V287.199Z" fill="black" stroke="black" stroke-width="3"/>
<path d="M148.578 287.199C148.578 290.431 151.193 293.045 154.424 293.045C157.656 293.045 160.271 290.431 160.271 287.199V174.264C160.271 171.032 157.656 168.418 154.424 168.418C151.193 168.418 148.578 171.032 148.578 174.264V287.199Z" fill="black" stroke="black" stroke-width="3"/>
<path d="M210.884 322.47H289.118C291.797 322.47 293.964 320.304 293.964 317.624V182.875C293.964 180.195 291.797 178.029 289.118 178.029H210.884C208.204 178.029 206.038 180.195 206.038 182.875V317.624C206.038 320.304 208.204 322.47 210.884 322.47ZM284.271 187.721V312.778H215.73V187.721H284.271Z" fill="black" stroke="black"/>
<path d="M228.268 305.084H271.731C274.411 305.084 276.578 302.917 276.578 300.238V200.259C276.578 197.58 274.411 195.413 271.731 195.413H228.268C225.589 195.413 223.422 197.58 223.422 200.259V300.238C223.422 302.917 225.589 305.084 228.268 305.084ZM266.885 205.106V295.391H233.115V205.106H266.885Z" fill="black" stroke="black"/>
<path d="M210.883 348.547H289.117C291.796 348.547 293.963 346.381 293.963 343.701V317.623C293.963 314.944 291.796 312.777 289.117 312.777H210.883C208.203 312.777 206.037 314.944 206.037 317.623V343.701C206.037 346.381 208.203 348.547 210.883 348.547ZM284.27 322.469V338.855H215.729V322.469H284.27Z" fill="black" stroke="black"/>
<path d="M271.727 335.008H228.268C225.865 335.008 223.922 333.065 223.922 330.662C223.922 328.258 225.865 326.315 228.268 326.315H271.727C274.131 326.315 276.073 328.258 276.073 330.662C276.073 333.065 274.131 335.008 271.727 335.008Z" fill="black"/>
<path d="M207.457 321.05C208.401 321.995 209.643 322.47 210.883 322.47C212.123 322.47 213.365 321.995 214.309 321.05L231.695 303.664C233.589 301.77 233.589 298.706 231.695 296.812C229.8 294.917 226.737 294.917 224.842 296.812L207.457 314.197C205.562 316.092 205.562 319.155 207.457 321.05Z" fill="black" stroke="black"/>
<path d="M285.69 321.05C286.635 321.995 287.877 322.47 289.117 322.47C290.357 322.47 291.598 321.995 292.543 321.05C294.438 319.155 294.438 316.092 292.543 314.197L275.158 296.812C273.263 294.917 270.2 294.917 268.305 296.812C266.41 298.706 266.41 301.77 268.305 303.664L285.69 321.05Z" fill="black" stroke="black"/>
<path d="M268.305 203.686C269.25 204.631 270.491 205.106 271.731 205.106C272.972 205.106 274.213 204.631 275.158 203.686L292.543 186.301C294.438 184.406 294.438 181.343 292.543 179.448C290.648 177.553 287.585 177.553 285.69 179.448L268.305 196.833C266.41 198.728 266.41 201.791 268.305 203.686Z" fill="black" stroke="black"/>
<path d="M224.842 203.686C225.787 204.631 227.028 205.106 228.268 205.106C229.508 205.106 230.75 204.631 231.695 203.686C233.589 201.791 233.589 198.728 231.695 196.833L214.309 179.448C212.415 177.553 209.351 177.553 207.457 179.448C205.562 181.343 205.562 184.406 207.457 186.301L224.842 203.686Z" fill="black" stroke="black"/>
</svg>
