<svg width="500" height="500" viewBox="0 0 500 500" fill="none" xmlns="http://www.w3.org/2000/svg">
<rect width="500" height="500" fill="#EFF5FF"/>
<path d="M152.11 242.414L153.538 242.867L152.11 242.414C146.805 259.139 147.362 277.36 153.681 293.729L188.892 384.943L188.892 384.943C189.711 387.063 191.749 388.461 194.022 388.461H305.978C308.251 388.461 310.289 387.063 311.108 384.943L311.108 384.943L346.319 293.729C352.638 277.36 353.195 259.139 347.89 242.414C342.885 226.637 332.85 212.781 319.474 203.091V179.475H321.972C329.415 179.475 335.467 173.423 335.467 165.98C335.467 158.537 329.415 152.484 321.972 152.484H315.738L267.701 118.173C262.507 114.463 256.382 112.5 250 112.5C243.618 112.5 237.493 114.463 232.3 118.173C232.3 118.173 232.3 118.173 232.3 118.173L184.262 152.484H178.028C170.585 152.484 164.533 158.537 164.533 165.98C164.533 173.423 170.585 179.475 178.028 179.475H180.526V203.091C167.15 212.781 157.115 226.637 152.11 242.414ZM189.075 210.539L189.075 210.539C190.604 209.519 191.523 207.803 191.523 205.964V179.475H308.477V200.466H202.019C198.982 200.466 196.52 202.928 196.52 205.964C196.52 209.001 198.982 211.463 202.019 211.463H312.271C337.372 229.071 347.158 261.018 336.06 289.769L302.207 377.464H197.793L163.94 289.769C152.645 260.51 162.978 227.937 189.075 210.539ZM238.692 127.121C242.012 124.749 245.919 123.497 250 123.497C254.081 123.497 257.988 124.749 261.308 127.121L296.817 152.484H203.183L238.692 127.121ZM175.529 165.98C175.529 164.603 176.651 163.481 178.028 163.481H321.972C323.349 163.481 324.471 164.603 324.471 165.98C324.471 167.356 323.349 168.478 321.972 168.478H178.028C176.651 168.478 175.529 167.356 175.529 165.98Z" fill="black" stroke="black" stroke-width="3"/>
</svg>
