<svg width="500" height="500" viewBox="0 0 500 500" fill="none" xmlns="http://www.w3.org/2000/svg">
<rect width="500" height="500" fill="#EFF5FF"/>
<path d="M286.101 177.284C279.354 163.21 265.521 154.467 250 154.467C234.479 154.467 220.646 163.209 213.9 177.283L207.906 189.785H186.652V302.331H313.348V189.785H292.094L286.101 177.284ZM298.699 287.598H201.301V204.519H217.105L227.095 183.683C231.377 174.75 240.154 169.201 250 169.201C259.846 169.201 268.624 174.75 272.906 183.684L282.895 204.519H298.699V287.598Z" fill="black"/>
<path d="M342.645 317.065V160.318H310.316C304.76 150.481 296.899 142.129 287.37 135.987C276.221 128.799 263.298 125 250 125C236.702 125 223.779 128.799 212.63 135.987C203.101 142.129 195.24 150.481 189.684 160.318H157.355V317.065H125V375H375V317.065H342.645ZM172.004 175.051H198.708L200.705 170.884C209.777 151.961 229.127 139.734 250 139.734C270.873 139.734 290.223 151.961 299.295 170.884L301.292 175.051H327.996V317.065H172.004V175.051ZM360.352 360.266H139.648V331.799H360.352V360.266Z" fill="black"/>
<path d="M281.25 250.5H220.215V265.234H281.25V250.5Z" fill="black"/>
<path d="M281.25 221.033H220.215V235.767H281.25V221.033Z" fill="black"/>
</svg>
